<!-- Created with Inkscape (http://www.inkscape.org/) -->
<svg xmlns:rdf="http://www.w3.org/1999/02/22-rdf-syntax-ns#" xmlns="http://www.w3.org/2000/svg" xml:space="preserve" version="1.1" xmlns:cc="http://creativecommons.org/ns#" xmlns:dc="http://purl.org/dc/elements/1.1/" viewBox="0 0 577.06 438.22"><metadata><rdf:RDF><cc:Work rdf:about=""><dc:format>image/svg+xml</dc:format><dc:type rdf:resource="http://purl.org/dc/dcmitype/StillImage"/><dc:title/></cc:Work></rdf:RDF></metadata><defs/><g transform="matrix(1.25,0,0,-1.25,0,438.22)"><path d="m0,34.1631,4.712,0,0,16.828,15.31-16.828,6,0-16.781,18.487,16.674,16.009-6.569,0-14.634-14.014,0,14.014-4.712,0,0-34.496zm43.529,0,4.712,0,0,14.187,1.058,0,9.569-14.187,5.405,0-10.023,14.763c3.205,0.72,5.564,1.965,7.076,3.732,1.514,1.771,2.271,3.81,2.271,6.119,0,2.888-1.171,5.258-3.511,7.107-2.334,1.85-5.363,2.775-9.082,2.775h-7.475v-34.496zm10.671,29.825c1.352-0.336,2.437-0.967,3.247-1.895,0.815-0.93,1.221-2.126,1.221-3.589,0-4.171-3.476-6.184-10.427-6.039v12.023c2.618,0,4.603-0.167,5.959-0.5m32.642-25.554c3.701-3.625,8.187-5.437,13.459-5.437,5.345,0,9.851,1.801,13.525,5.397,3.674,3.6,5.51,8.006,5.51,13.22,0,4.923-1.857,9.176-5.577,12.758-3.718,3.579-8.152,5.37-13.298,5.37-5.27,0-9.783-1.776-13.536-5.331-3.755-3.553-5.632-7.819-5.632-12.797,0-5.161,1.85-9.553,5.549-13.18m23.437,3.481c-2.697-2.66-5.907-3.988-9.627-3.988-4.044,0-7.459,1.301-10.248,3.907-2.788,2.606-4.181,5.794-4.181,9.564,0,3.711,1.355,6.896,4.072,9.548,2.717,2.65,5.98,3.976,9.791,3.976,4.006,0,7.381-1.303,10.125-3.908,2.744-2.606,4.115-5.81,4.115-9.616,0-3.663-1.349-6.823-4.047-9.483m39.328,2.333-10.498,24.356-4.865,0,15.315-35.526,11.103,25.522,11.1-25.522,15.286,35.526-4.867,0-10.419-24.084-11.104,25.466-11.051-25.738zm47.473-10.085,4.899,0,3.961,8.826,14.633,0,4.006-8.826,4.936,0-16.284,35.823-16.151-35.823zm21.714,12.751-11.095,0,5.519,12.304,5.576-12.304zm27.982-12.751,4.715,0,0,14.187,1.055,0,9.571-14.187,5.403,0-10.019,14.763c3.201,0.72,5.561,1.965,7.073,3.732,1.512,1.771,2.269,3.81,2.269,6.119,0,2.888-1.166,5.258-3.507,7.107-2.336,1.85-5.365,2.775-9.083,2.775h-7.477v-34.496zm10.67,29.825c1.356-0.336,2.439-0.967,3.252-1.895,0.81-0.93,1.22-2.126,1.22-3.589,0-4.171-3.479-6.184-10.427-6.039v12.023c2.617,0,4.604-0.167,5.955-0.5m27.529-0.041,15.572,0-16.385-29.784,23.774,0,0,4.654-16.152,0,16.478,29.842-23.287,0,0-4.712zm50.134-14.024,0-15.76,4.714,0,0,15.812,11.318,18.684-5.223,0-8.381-13.89-8.478,13.89-5.212,0,11.262-18.736zm46.629-5.675-10.499,24.356-4.864,0,15.313-35.526,11.106,25.522,11.098-25.522,15.285,35.526-4.865,0-10.42-24.084-11.105,25.466-11.049-25.738zm47.472-10.085,4.901,0,3.959,8.826,14.638,0,4.005-8.826,4.935,0-16.286,35.823-16.152-35.823zm21.719,12.751-11.097,0,5.518,12.304,5.579-12.304z" style="fill-rule:nonzero;fill:#1c1c1b;"/><g transform="translate(128.8359,0.1289)"><path style="fill-rule:nonzero;fill:#1c1c1b;" d="m0,0,2.002,0,5.32,12.939-2.439,0-3.856-9.875-3.872,9.875-2.495,0l5.34-12.939zm15.035,0.092,9.613,0,0,2.016-7.36,0,0,3.454,6.442,0,0,2.017-6.442,0,0,3.341,7.269,0,0,2.019-9.522,0,0-12.847zm23.897-0.221c2.276,0,4.093,0.917,5.359,1.999v5.398h-5.471v-1.964h3.287v-2.407c-0.788-0.586-1.89-0.972-3.102-0.972-2.624,0-4.37,1.946-4.37,4.59v0.035c0,2.46,1.802,4.536,4.168,4.536,1.635,0,2.605-0.531,3.599-1.375l1.43,1.706c-1.32,1.118-2.697,1.743-4.936,1.743-3.876,0-6.626-3.047-6.626-6.645v-0.038c0-3.746,2.639-6.606,6.662-6.606m12.702,0.221,2.311,0,1.324,3.101,6.075,0,1.301-3.101,2.383,0-5.647,12.938-2.094,0-5.653-12.938zm4.46,5.101,2.205,5.14,2.217-5.14-4.422,0zm16.647-5.101,2.218,0,0,9.137,7.089-9.137,1.89,0,0,12.847-2.219,0,0-8.883-6.889,8.883-2.089,0,0-12.847zm31.019,0,5.947,0c2.862,0,4.749,1.227,4.749,3.521v0.037c0,1.746-1.043,2.61-2.549,3.121,0.954,0.497,1.835,1.321,1.835,2.866v0.036c0,0.862-0.293,1.561-0.862,2.128-0.733,0.734-1.89,1.138-3.358,1.138h-5.762v-12.847zm7.726,9.176c0-1.176-0.972-1.745-2.423-1.745h-3.086v3.417h3.252c1.449,0,2.257-0.625,2.257-1.637v-0.035zm0.716-5.378,0-0.037c0-1.156-0.936-1.763-2.476-1.763h-3.749v3.526h3.582c1.781,0,2.643-0.641,2.643-1.726m15.583-4.001c3.361,0,5.525,1.924,5.525,5.762v7.288h-2.258v-7.399c0-2.368-1.23-3.56-3.23-3.56-2.019,0-3.251,1.266-3.251,3.653v7.306h-2.256v-7.399c0-3.727,2.13-5.651,5.47-5.651m14.135,0.203,2.258,0,0,4.477,2.824,0,3.158-4.477,2.68,0-3.468,4.862c1.777,0.514,3.045,1.781,3.045,3.89v0.038c0,1.12-0.385,2.077-1.064,2.773-0.825,0.807-2.091,1.284-3.708,1.284h-5.725v-12.847zm2.258,6.478,0,4.315,3.284,0c1.671,0,2.663-0.753,2.663-2.132v-0.036c0-1.303-1.03-2.147-2.647-2.147h-3.3zm22.611-6.699c2.28,0,4.094,0.917,5.36,1.999v5.398h-5.468v-1.964h3.289v-2.407c-0.792-0.586-1.894-0.972-3.107-0.972-2.625,0-4.368,1.946-4.368,4.59v0.035c0,2.46,1.798,4.536,4.168,4.536,1.635,0,2.608-0.531,3.6-1.375l1.426,1.706c-1.318,1.118-2.694,1.743-4.937,1.743-3.872,0-6.624-3.047-6.624-6.645v-0.038c0-3.746,2.642-6.606,6.661-6.606m13.806,0.221,9.617,0,0,2.016-7.361,0,0,3.454,6.444,0,0,2.017-6.444,0,0,3.341,7.269,0,0,2.019-9.525,0,0-12.847zm17.806,0,2.256,0,0,4.477,2.823,0,3.162-4.477,2.678,0-3.468,4.862c1.779,0.514,3.046,1.781,3.046,3.89v0.038c0,1.12-0.387,2.077-1.064,2.773-0.826,0.807-2.091,1.284-3.71,1.284h-5.723v-12.847zm2.256,6.478,0,4.315,3.282,0c1.675,0,2.666-0.753,2.666-2.132v-0.036c0-1.303-1.029-2.147-2.645-2.147h-3.303z"/></g><g transform="translate(101.3418,346.5752)"><path style="fill-rule:nonzero;fill:#1c1c1b;" d="m0,0c0.068-6.871,1.406-30.906,16.23-45.731,14.773-14.773,38.198-16.187,45.721-16.237-0.067,6.871-1.406,30.906-16.228,45.73-14.774,14.771-38.196,16.187-45.723,16.238m62.383-65.969c-7.406,0-32.826,1.255-48.981,17.409-18.613,18.615-17.441,49.329-17.382,50.626,0.046,1.034,0.875,1.86,1.908,1.909,0,0,0.584,0.026,1.639,0.026,7.408,0,32.828-1.255,48.984-17.411,18.611-18.613,17.439-49.326,17.381-50.625-0.047-1.032-0.875-1.86-1.908-1.907,0,0-0.585-0.027-1.641-0.027"/></g><g transform="translate(352.1689,345.0693)"><path style="fill-rule:nonzero;fill:#1c1c1b;" d="m0,0c-7.519-0.049-30.948-1.461-45.723-16.236-14.847-14.85-16.171-38.864-16.232-45.728,7.516,0.049,30.948,1.459,45.725,16.235,14.822,14.825,16.163,38.858,16.23,45.729m-62.379-65.966c-1.061,0-1.647,0.028-1.647,0.028-1.033,0.048-1.861,0.875-1.908,1.907-0.058,1.299-1.229,32.01,17.383,50.623,16.153,16.154,41.572,17.41,48.977,17.41,1.061,0,1.647-0.027,1.647-0.027,1.032-0.049,1.861-0.875,1.907-1.909,0.059-1.297,1.23-32.009-17.382-50.624-16.153-16.152-41.572-17.408-48.977-17.408"/></g><g transform="translate(205.9277,151.0479)"><path style="fill-rule:nonzero;fill:#1c1c1b;" d="M0,0c-1.05,0-1.931,0.818-1.994,1.88-5.196,86.208-32.314,119.143-33.468,120.502l-39.557,39.237c-0.784,0.777-0.789,2.044-0.01,2.828,0.777,0.783,2.044,0.789,2.828,0.012l39.611-39.292c0.031-0.031,0.062-0.063,0.09-0.097,1.188-1.343,29.134-33.943,34.499-122.95,0.066-1.102-0.773-2.05-1.877-2.116-0.04-0.003-0.081-0.004-0.122-0.004"/></g><g transform="translate(246.71,153.3916)"><path style="fill-rule:nonzero;fill:#1c1c1b;" d="m0,0c-0.041,0-0.083,0.001-0.125,0.004-1.103,0.067-1.941,1.017-1.873,2.119,5.369,87.351,33.846,118.031,35.056,119.295,0.028,0.029,0.057,0.059,0.088,0.087l47.997,44.255c0.81,0.75,2.077,0.696,2.826-0.115,0.748-0.812,0.697-2.078-0.115-2.827l-47.941-44.203c-1.125-1.23-28.734-32.395-33.919-116.738-0.065-1.061-0.945-1.877-1.994-1.877"/></g><g transform="translate(227.5996,249.0537)"><path style="fill-rule:nonzero;fill:#1c1c1b;" d="M0,0c-0.266,0-0.535,0.053-0.795,0.165-1.013,0.439-1.478,1.617-1.039,2.631,1.709,3.941,3.403,10.076,3.335,14.171-0.019,1.104,0.862,2.014,1.967,2.033h0.034c1.089,0,1.98-0.873,1.999-1.967,0.081-4.879-1.843-11.625-3.665-15.828-0.327-0.755-1.064-1.205-1.836-1.205"/></g><g transform="translate(323.7168,292.9287)"><path style="fill-rule:nonzero;fill:#1c1c1b;" d="m0,0-18.867,0c-1.105,0-2,0.896-2,2s0.895,2,2,2h18.867c1.104,0,2-0.896,2-2s-0.896-2-2-2"/></g><g transform="translate(222.1543,148.5674)"><path style="fill-rule:nonzero;fill:#1c1c1b;" d="m0,0c0-1.627-1.32-2.946-2.948-2.946s-2.947,1.319-2.947,2.946c0,1.628,1.319,2.947,2.947,2.947s2.948-1.319,2.948-2.947"/></g><g transform="translate(240.416,146.1836)"><path style="fill-rule:nonzero;fill:#1c1c1b;" d="m0,0c0-1.627-1.319-2.946-2.947-2.946s-2.948,1.319-2.948,2.946c0,1.629,1.32,2.948,2.948,2.948s2.947-1.319,2.947-2.948"/></g><g transform="translate(229.0762,106.5898)"><path style="fill-rule:nonzero;fill:#1c1c1b;" d="m0,0c-1.104,0-2,0.896-2,2v9.07c0,1.105,0.896,2,2,2s2-0.895,2-2v-9.07c0-1.104-0.896-2-2-2"/></g><g transform="translate(240.3535,111.6504)"><path style="fill-rule:nonzero;fill:#1c1c1b;" d="m0,0c-0.512,0-1.023,0.195-1.414,0.586l-5.77,5.769c-0.781,0.782-0.781,2.047,0,2.829,0.782,0.781,2.047,0.781,2.829,0l5.769-5.77c0.781-0.781,0.781-2.047,0-2.828-0.391-0.391-0.902-0.586-1.414-0.586"/></g><g transform="translate(211.9395,110.626)"><path style="fill-rule:nonzero;fill:#1c1c1b;" d="m0,0c-0.512,0-1.023,0.195-1.414,0.586-0.781,0.781-0.781,2.047,0,2.828l5.037,5.037c0.781,0.781,2.047,0.781,2.828,0s0.781-2.047,0-2.828l-5.037-5.037c-0.391-0.391-0.902-0.586-1.414-0.586"/></g><g transform="translate(223.6914,133.6084)"><path style="fill-rule:nonzero;fill:#1c1c1b;" d="m0,0c-6.448,0-10.95,1.01-11.357,1.104-1.076,0.251-1.744,1.325-1.495,2.4s1.326,1.744,2.399,1.497c0.208-0.049,21.082-4.685,37.547,6.965,0.901,0.638,2.15,0.424,2.788-0.478,0.638-0.901,0.424-2.15-0.478-2.788-10.022-7.091-21.264-8.7-29.404-8.7"/></g><g transform="translate(205.9609,150.584)"><path style="fill-rule:nonzero;fill:#1c1c1b;" d="m0,0c-0.865-2.334-4.404-12.972-0.364-20.979,2.179-4.318,6.303-7.252,12.257-8.721,2.302-0.568,4.579-0.856,6.766-0.856,8.594,0,14.705,4.442,18.319,8.168,6.351,6.55,9.147,14.879,9.037,18.447-0.124,4.009-10.273,11.714-23.828,11.714-7.923,0-15.583-2.685-22.187-7.773m18.66-34.556-0.001,0c-2.51,0-5.108,0.327-7.723,0.973-7.147,1.762-12.154,5.402-14.88,10.821-5.363,10.657,0.194,24.199,0.433,24.771,0.13,0.311,0.338,0.586,0.604,0.796,7.412,5.867,16.09,8.968,25.094,8.968,15.146,0,27.607-8.529,27.826-15.591,0.157-5.108-3.351-14.328-10.163-21.354-5.953-6.139-13.28-9.384-21.19-9.384"/></g><g transform="translate(169.7295,302.2314)"><path style="fill-rule:nonzero;fill:#1c1c1b;" d="m0,0c-3.937,0-6.87,0.293-7.149,0.321-1.099,0.115-1.897,1.097-1.784,2.195,0.114,1.099,1.086,1.906,2.195,1.784,0.149-0.016,15.169-1.508,22.534,2.376,0.875,0.461,1.913,1.029,3.091,1.673,10.061,5.499,28.83,15.733,44.898,15.275,13.166-0.376,19.335-4.31,24.777-7.778,1.994-1.272,3.877-2.473,5.968-3.389,7.49-3.277,23.212-4.768,27.744-3.742,1.075,0.243,2.149-0.432,2.392-1.509,0.244-1.077-0.431-2.148-1.509-2.393-5.238-1.186-21.823,0.301-30.23,3.98-2.376,1.041-4.387,2.322-6.516,3.68-5.25,3.347-10.679,6.808-22.739,7.153-15.034,0.448-33.831-9.849-42.867-14.787-1.198-0.655-2.253-1.232-3.144-1.701-4.892-2.58-12.229-3.138-17.661-3.138"/></g><g transform="translate(215.0146,248.4287)"><path style="fill-rule:nonzero;fill:#1c1c1b;" d="m0,0c-0.895,0-1.709,0.604-1.937,1.51-0.544,2.148-5.4,6.969-8.673,9.706-0.848,0.708-0.961,1.97-0.253,2.816,0.71,0.849,1.97,0.96,2.817,0.253,1.483-1.238,8.931-7.627,9.985-11.794,0.272-1.071-0.377-2.159-1.447-2.429-0.165-0.042-0.33-0.062-0.492-0.062"/></g><g transform="translate(220.001,258.5537)"><path style="fill-rule:nonzero;fill:#1c1c1b;" d="M0,0c-1.042,0-1.921,0.808-1.993,1.863-0.23,3.328-0.487,11.327,2.053,13.719,0.805,0.756,2.07,0.719,2.827-0.086,0.758-0.805,0.718-2.07-0.085-2.827-0.745-0.871-1.128-5.8-0.805-10.532,0.075-1.102-0.757-2.056-1.858-2.132-0.047-0.003-0.093-0.005-0.139-0.005"/></g><g transform="translate(243.7061,251.4697)"><path style="fill-rule:nonzero;fill:#1c1c1b;" d="M0,0c-1.036,0-1.915,0.818-1.996,1.868-0.209,2.712,3.202,8.051,7.111,10.005,0.989,0.495,2.19,0.092,2.684-0.894,0.494-0.989,0.094-2.19-0.895-2.684-2.829-1.414-4.869-5.219-4.91-6.164,0.084-1.101-0.74-2.04-1.842-2.125-0.05-0.004-0.101-0.006-0.152-0.006"/></g><g transform="translate(145.5859,298.3711)"><path style="fill-rule:nonzero;fill:#1c1c1b;" d="m0,0-18.232,0c-1.105,0-2,0.896-2,2s0.895,2,2,2h18.232c1.104,0,2-0.896,2-2s-0.896-2-2-2"/></g><g transform="translate(152.3047,292.6719)"><path style="fill-rule:nonzero;fill:#1c1c1b;" d="m0,0c-1.105,0-2,0.896-2,2v15.601c0,1.103,0.895,2,2,2,1.104,0,2-0.897,2-2v-15.601c0-1.104-0.896-2-2-2"/></g><g transform="translate(265.8135,233.7598)"><path style="fill-rule:nonzero;fill:#1c1c1b;" d="m0,0c2.186-1.895,6.637-5.121,11.615-5.121,5.001,0,9.436,3.219,11.614,5.114-2.185,1.895-6.636,5.121-11.614,5.122-5.002-0.001-9.436-3.219-11.615-5.115m11.615-9.121c-8.799,0-15.704,7.452-15.993,7.769-0.698,0.764-0.698,1.934,0,2.698,0.289,0.317,7.194,7.768,15.993,7.769,8.798-0.001,15.702-7.453,15.992-7.77,0.698-0.764,0.697-1.934-0.001-2.698-0.289-0.317-7.193-7.768-15.991-7.768"/></g><g transform="translate(280.375,233.7559)"><path style="fill-rule:nonzero;fill:#1c1c1b;" d="m0,0c0-1.627-1.319-2.945-2.947-2.945-1.627,0-2.948,1.318-2.948,2.945,0,1.629,1.321,2.947,2.948,2.947,1.628,0,2.947-1.318,2.947-2.947"/></g><g transform="translate(167.3945,233.7598)"><path style="fill-rule:nonzero;fill:#1c1c1b;" d="m0,0c2.185-1.895,6.636-5.121,11.614-5.121,4.999,0,9.434,3.219,11.612,5.114-2.185,1.895-6.636,5.121-11.612,5.122-5.001-0.001-9.436-3.219-11.614-5.115m11.614-9.121c-8.799,0-15.704,7.452-15.993,7.769-0.697,0.764-0.697,1.934,0,2.698,0.289,0.317,7.194,7.768,15.993,7.769,8.796-0.001,15.7-7.453,15.99-7.77,0.697-0.764,0.697-1.934,0-2.698-0.29-0.317-7.194-7.768-15.99-7.768"/></g><g transform="translate(181.9536,233.7559)"><path style="fill-rule:nonzero;fill:#1c1c1b;" d="m0,0c0-1.627-1.32-2.946-2.946-2.946-1.628,0-2.947,1.319-2.947,2.946,0,1.628,1.319,2.947,2.947,2.947,1.626,0,2.946-1.319,2.946-2.947"/></g><g transform="translate(315.3857,304.2334)"><path style="fill-rule:nonzero;fill:#1c1c1b;" d="m0,0c-1.104,0-2,0.896-2,2v11.438c0,1.104,0.896,2,2,2s2-0.896,2-2v-11.438c0-1.104-0.896-2-2-2"/></g><g transform="translate(289.959,234.209)"><path style="fill-rule:nonzero;fill:#1c1c1b;" d="m0,0c-0.516,0-1.031,0.198-1.423,0.595-0.776,0.785-0.768,2.051,0.018,2.828,2.219,2.194,5.02,5.858,6.077,8.618,0.396,1.032,1.554,1.547,2.583,1.152,1.032-0.394,1.548-1.55,1.153-2.582-1.318-3.443-4.554-7.615-7.003-10.034-0.389-0.385-0.897-0.577-1.405-0.577"/></g><g transform="translate(167.9551,235.4922)"><path style="fill-rule:nonzero;fill:#1c1c1b;" d="M0,0c-0.387,0-0.775,0.111-1.119,0.344-3.054,2.066-6.381,6.165-8.181,9.098-0.577,0.942-0.282,2.173,0.659,2.751,0.943,0.578,2.174,0.283,2.751-0.66,1.632-2.66,4.565-6.221,7.013-7.877,0.914-0.619,1.154-1.862,0.535-2.777-0.387-0.571-1.017-0.879-1.658-0.879"/></g><g transform="translate(279.2021,238.9346)"><path style="fill-rule:nonzero;fill:#1c1c1b;" d="m0,0c-0.171,0-0.345,0.022-0.518,0.069-1.067,0.285-1.701,1.382-1.415,2.449,0.515,1.925,0.897,4.977,0.588,6.842-0.179,1.09,0.558,2.119,1.648,2.299,1.093,0.186,2.119-0.557,2.3-1.647,0.421-2.558-0.052-6.214-0.672-8.528-0.24-0.894-1.047-1.484-1.931-1.484"/></g><g transform="translate(174.8867,239.7363)"><path style="fill-rule:nonzero;fill:#1c1c1b;" d="m0,0c-0.984,0-1.842,0.726-1.979,1.728-0.353,2.571,0.219,6.212,0.902,8.507,0.314,1.059,1.429,1.662,2.487,1.348,1.059-0.314,1.662-1.428,1.347-2.487-0.568-1.909-1.03-4.949-0.774-6.824,0.151-1.094-0.615-2.103-1.71-2.253-0.091-0.013-0.183-0.019-0.273-0.019"/></g><g transform="translate(180.9775,239.667)"><path style="fill-rule:nonzero;fill:#1c1c1b;" d="m0,0c-0.037,0-0.072,0.001-0.109,0.003-1.102,0.059-1.949,1-1.89,2.103,0.068,1.29,0.652,2.933,1.201,3.989,0.507,0.979,1.714,1.362,2.695,0.852,0.98-0.509,1.362-1.716,0.853-2.696-0.388-0.746-0.727-1.804-0.757-2.357-0.056-1.067-0.939-1.894-1.993-1.894"/></g><g transform="translate(272.9346,239.625)"><path style="fill-rule:nonzero;fill:#1c1c1b;" d="M0,0c-0.988,0-1.848,0.732-1.979,1.738-0.132,0.997-0.53,2.276-0.887,2.852-0.583,0.938-0.294,2.171,0.644,2.754,0.937,0.582,2.171,0.295,2.754-0.645,0.762-1.226,1.28-3.112,1.453-4.437,0.145-1.096-0.626-2.101-1.72-2.244-0.089-0.012-0.177-0.018-0.265-0.018"/></g><g transform="translate(280.2256,226.9248)"><path style="fill-rule:nonzero;fill:#1c1c1b;" d="m0,0c-3.49-13.748-22.817-71.196-24.554-74.056-6.746-10.959-18.034-23.973-27.645-24.584-4.011-0.256-7.528,1.572-10.761,5.581-12.034,14.922-31.767,65.477-40.785,93.016-1.693,0.304-3.28,0.874-4.716,1.57,8.745-27.632,29.615-81.258,42.388-97.097,3.798-4.71,8.214-7.093,13.138-7.093,0.328,0,0.658,0.011,0.99,0.031,14,0.89,27.112,20.492,30.798,26.479,2.618,4.252,24.239,69.971,25.573,77.671-1.355-0.657-2.842-1.206-4.426-1.518"/></g><g transform="translate(297.2549,283.1016)"><path style="fill-rule:nonzero;fill:#1c1c1b;" d="m0,0c-1.098,0.047-2.038-0.804-2.089-1.907-0.222-4.876-1.202-10.295-3.086-17.056-1.285-4.615-3.084-9.159-4.823-13.554-1.403-3.546-2.825-7.159-4.023-10.888,1.319-0.521,2.533-1.163,3.612-1.836,1.175,3.754,2.624,7.445,4.131,11.253,1.777,4.491,3.614,9.134,4.957,13.952,1.967,7.058,2.992,12.762,3.228,17.947,0.05,1.104-0.803,2.039-1.907,2.089"/></g><g transform="translate(169.0781,237.5312)"><path style="fill-rule:nonzero;fill:#1c1c1b;" d="M0,0c1.062,0.697,2.274,1.375,3.601,1.942-0.594,2.289-0.936,3.97-0.969,4.877-0.333,9.011-4.511,36.415-4.689,37.577-0.167,1.092-1.187,1.839-2.279,1.675-1.092-0.167-1.842-1.187-1.675-2.279,0.043-0.282,4.321-28.337,4.646-37.121,0.046-1.231,0.528-3.54,1.365-6.671"/></g></g></svg>
