<?xml version="1.0" encoding="utf-8"?>
<!-- Generator: Adobe Illustrator 16.0.0, SVG Export Plug-In . SVG Version: 6.00 Build 0)  -->
<!DOCTYPE svg PUBLIC "-//W3C//DTD SVG 1.1//EN" "http://www.w3.org/Graphics/SVG/1.1/DTD/svg11.dtd">
<svg version="1.1" id="Warstwa_1" xmlns="http://www.w3.org/2000/svg" xmlns:xlink="http://www.w3.org/1999/xlink" x="0px" y="0px"
	 width="461.648px" height="350.355px" viewBox="0 0 461.648 350.355" enable-background="new 0 0 461.648 350.355"
	 xml:space="preserve">
<path fill="#1C1C1B" d="M450.929,303.662h-11.097l5.518-12.304L450.929,303.662z M429.21,316.413h4.901l3.959-8.826h14.638
	l4.005,8.826h4.936l-16.286-35.823L429.21,316.413z M381.738,306.328l-10.499-24.356h-4.864l15.313,35.526l11.105-25.521
	l11.098,25.521l15.285-35.526h-4.864l-10.421,24.084l-11.104-25.466L381.738,306.328z M335.109,300.653v15.76h4.714v-15.812
	l11.317-18.685h-5.223l-8.381,13.89l-8.479-13.89h-5.212L335.109,300.653z M284.975,286.629h15.572l-16.385,29.784h23.773v-4.654
	h-16.151l16.478-29.842h-23.287V286.629z M257.446,286.588c1.355,0.336,2.438,0.967,3.252,1.896c0.81,0.93,1.22,2.126,1.22,3.589
	c0,4.171-3.479,6.184-10.427,6.039v-12.023C254.108,286.088,256.095,286.255,257.446,286.588 M246.776,316.413h4.715v-14.187h1.055
	l9.571,14.187h5.402l-10.019-14.763c3.201-0.721,5.561-1.965,7.073-3.732c1.512-1.771,2.269-3.81,2.269-6.119
	c0-2.888-1.166-5.258-3.507-7.106c-2.336-1.851-5.365-2.775-9.083-2.775h-7.477V316.413z M218.794,303.662h-11.095l5.519-12.304
	L218.794,303.662z M197.08,316.413h4.899l3.961-8.826h14.633l4.006,8.826h4.936l-16.283-35.823L197.08,316.413z M149.607,306.328
	l-10.498-24.356h-4.865l15.314,35.526l11.104-25.521l11.1,25.521l15.286-35.526h-4.867l-10.419,24.084l-11.104-25.466
	L149.607,306.328z M110.279,308.661c-2.697,2.66-5.907,3.988-9.627,3.988c-4.044,0-7.459-1.302-10.248-3.907
	c-2.788-2.606-4.182-5.794-4.182-9.564c0-3.711,1.355-6.896,4.072-9.548c2.717-2.649,5.98-3.976,9.791-3.976
	c4.006,0,7.381,1.303,10.125,3.908s4.115,5.81,4.115,9.615C114.326,302.841,112.977,306.001,110.279,308.661 M86.842,312.143
	c3.701,3.625,8.188,5.437,13.459,5.437c5.345,0,9.852-1.801,13.525-5.397c3.674-3.6,5.51-8.006,5.51-13.22
	c0-4.923-1.857-9.176-5.577-12.758c-3.718-3.579-8.151-5.37-13.298-5.37c-5.27,0-9.783,1.776-13.536,5.331
	c-3.755,3.553-5.632,7.819-5.632,12.797C81.293,304.123,83.143,308.515,86.842,312.143 M54.2,286.588
	c1.352,0.336,2.437,0.967,3.247,1.896c0.814,0.93,1.221,2.126,1.221,3.589c0,4.171-3.476,6.184-10.427,6.039v-12.023
	C50.859,286.088,52.844,286.255,54.2,286.588 M43.529,316.413h4.712v-14.187h1.058l9.569,14.187h5.405L54.25,301.65
	c3.205-0.721,5.564-1.965,7.076-3.732c1.514-1.771,2.271-3.81,2.271-6.119c0-2.888-1.171-5.258-3.511-7.106
	c-2.334-1.851-5.363-2.775-9.082-2.775h-7.475V316.413z M0,316.413h4.712v-16.828l15.311,16.828h6L9.241,297.926l16.674-16.009
	h-6.569L4.712,295.931v-14.014H0V316.413z"/>
<path fill="#1C1C1B" d="M329.493,343.877v-4.314h3.282c1.675,0,2.666,0.753,2.666,2.132v0.036c0,1.303-1.029,2.146-2.646,2.146
	H329.493z M327.237,350.355h2.256v-4.478h2.823l3.161,4.478h2.679l-3.469-4.862c1.779-0.514,3.047-1.781,3.047-3.89v-0.038
	c0-1.12-0.388-2.077-1.064-2.773c-0.826-0.807-2.091-1.284-3.71-1.284h-5.723V350.355z M309.431,350.355h9.617v-2.017h-7.361v-3.453
	h6.444v-2.018h-6.444v-3.341h7.27v-2.02h-9.525V350.355z M295.625,350.576c2.28,0,4.094-0.917,5.36-1.999v-5.397h-5.469v1.964h3.289
	v2.406c-0.792,0.587-1.894,0.973-3.106,0.973c-2.625,0-4.368-1.946-4.368-4.59v-0.035c0-2.46,1.798-4.536,4.168-4.536
	c1.635,0,2.607,0.531,3.6,1.375l1.427-1.706c-1.318-1.118-2.694-1.743-4.938-1.743c-3.872,0-6.624,3.047-6.624,6.646v0.038
	C288.964,347.716,291.605,350.576,295.625,350.576 M273.014,343.877v-4.314h3.284c1.671,0,2.663,0.753,2.663,2.132v0.036
	c0,1.303-1.03,2.146-2.647,2.146H273.014z M270.756,350.355h2.258v-4.478h2.824l3.158,4.478h2.68l-3.468-4.862
	c1.777-0.514,3.045-1.781,3.045-3.89v-0.038c0-1.12-0.385-2.077-1.064-2.773c-0.824-0.807-2.091-1.284-3.708-1.284h-5.725V350.355z
	 M256.621,350.559c3.36,0,5.524-1.925,5.524-5.763v-7.288h-2.258v7.399c0,2.368-1.229,3.56-3.229,3.56
	c-2.02,0-3.251-1.266-3.251-3.652v-7.307h-2.256v7.399C251.151,348.634,253.281,350.559,256.621,350.559 M241.038,346.558v0.037
	c0,1.155-0.937,1.763-2.477,1.763h-3.749v-3.526h3.582C240.176,344.831,241.038,345.473,241.038,346.558 M240.322,341.18
	c0,1.176-0.973,1.744-2.424,1.744h-3.086v-3.417h3.253c1.448,0,2.257,0.625,2.257,1.638V341.18z M232.596,350.355h5.947
	c2.862,0,4.749-1.228,4.749-3.521v-0.037c0-1.745-1.043-2.609-2.549-3.12c0.954-0.497,1.835-1.321,1.835-2.866v-0.036
	c0-0.862-0.293-1.562-0.862-2.128c-0.732-0.734-1.89-1.139-3.357-1.139h-5.763V350.355z M201.577,350.355h2.218v-9.138l7.089,9.138
	h1.89v-12.848h-2.219v8.884l-6.889-8.884h-2.089V350.355z M184.93,345.254l2.205-5.14l2.217,5.14H184.93z M180.47,350.355h2.312
	l1.323-3.102h6.075l1.301,3.102h2.384l-5.647-12.938h-2.094L180.47,350.355z M167.768,350.576c2.276,0,4.094-0.917,5.359-1.999
	v-5.397h-5.471v1.964h3.287v2.406c-0.788,0.587-1.891,0.973-3.103,0.973c-2.624,0-4.37-1.946-4.37-4.59v-0.035
	c0-2.46,1.802-4.536,4.168-4.536c1.635,0,2.605,0.531,3.6,1.375l1.43-1.706c-1.32-1.118-2.697-1.743-4.937-1.743
	c-3.876,0-6.626,3.047-6.626,6.646v0.038C161.105,347.716,163.745,350.576,167.768,350.576 M143.871,350.355h9.613v-2.017h-7.36
	v-3.453h6.442v-2.018h-6.442v-3.341h7.269v-2.02h-9.521V350.355z M128.836,350.447h2.002l5.32-12.939h-2.439l-3.855,9.875
	l-3.872-9.875h-2.495L128.836,350.447z"/>
<g>
	<path fill="#1C1C1B" d="M163.725,69.97c-7.406,0-32.826-1.255-48.98-17.409C96.131,33.946,97.303,3.232,97.361,1.935
		c0.047-1.033,0.875-1.859,1.908-1.908c0,0,0.584-0.026,1.64-0.026c7.407,0,32.827,1.255,48.983,17.411
		c18.611,18.613,17.439,49.326,17.381,50.625c-0.047,1.032-0.875,1.859-1.907,1.907C165.366,69.943,164.781,69.97,163.725,69.97z
		 M101.342,4.001c0.068,6.871,1.406,30.906,16.23,45.731c14.772,14.772,38.197,16.187,45.721,16.236
		c-0.067-6.871-1.406-30.905-16.229-45.729C132.291,5.468,108.869,4.052,101.342,4.001z"/>
</g>
<g>
	<path fill="#1C1C1B" d="M289.79,71.473c-1.062,0-1.647-0.027-1.647-0.027c-1.032-0.049-1.86-0.875-1.907-1.907
		c-0.059-1.299-1.229-32.01,17.383-50.623c16.152-16.154,41.571-17.41,48.977-17.41c1.062,0,1.647,0.027,1.647,0.027
		c1.032,0.049,1.86,0.875,1.907,1.908c0.059,1.298,1.229,32.01-17.383,50.624C322.614,70.217,297.195,71.473,289.79,71.473z
		 M352.169,5.507c-7.519,0.049-30.948,1.461-45.723,16.236c-14.848,14.85-16.171,38.863-16.232,45.728
		c7.516-0.049,30.948-1.459,45.725-16.234C350.761,36.411,352.102,12.378,352.169,5.507z"/>
</g>
<g>
	<path fill="#1C1C1B" d="M205.928,199.528c-1.05,0-1.931-0.818-1.994-1.88c-5.196-86.208-32.313-119.144-33.468-120.502
		l-39.557-39.237c-0.784-0.777-0.789-2.044-0.011-2.828c0.777-0.783,2.044-0.789,2.828-0.012l39.611,39.292
		c0.031,0.031,0.062,0.063,0.09,0.097c1.188,1.344,29.134,33.943,34.499,122.95c0.066,1.103-0.773,2.05-1.877,2.116
		C206.01,199.527,205.969,199.528,205.928,199.528z"/>
</g>
<g>
	<path fill="#1C1C1B" d="M246.71,197.185c-0.041,0-0.083-0.001-0.125-0.004c-1.103-0.067-1.941-1.017-1.873-2.119
		c5.369-87.351,33.846-118.031,35.056-119.295c0.028-0.029,0.058-0.059,0.089-0.087l47.996-44.255
		c0.811-0.75,2.077-0.696,2.826,0.115c0.748,0.812,0.697,2.077-0.115,2.826l-47.94,44.203c-1.125,1.23-28.734,32.396-33.919,116.738
		C248.639,196.368,247.759,197.185,246.71,197.185z"/>
</g>
<g>
	<path fill="#1C1C1B" d="M227.6,101.522c-0.266,0-0.535-0.053-0.795-0.165c-1.013-0.439-1.479-1.617-1.039-2.631
		c1.709-3.941,3.403-10.076,3.335-14.171c-0.019-1.104,0.862-2.015,1.967-2.033c0.012,0,0.022,0,0.034,0
		c1.089,0,1.98,0.873,1.999,1.967c0.081,4.879-1.843,11.625-3.665,15.828C229.108,101.072,228.372,101.522,227.6,101.522z"/>
</g>
<g>
	<path fill="#1C1C1B" d="M323.717,57.647H304.85c-1.104,0-2-0.896-2-2s0.896-2,2-2h18.867c1.104,0,2,0.896,2,2
		S324.821,57.647,323.717,57.647z"/>
</g>
<g>
	<circle fill="#1C1C1B" cx="219.207" cy="202.009" r="2.947"/>
</g>
<g>
	<circle fill="#1C1C1B" cx="237.469" cy="204.393" r="2.947"/>
</g>
<g>
	<path fill="#1C1C1B" d="M229.076,243.986c-1.104,0-2-0.896-2-2v-9.07c0-1.104,0.896-2,2-2s2,0.896,2,2v9.07
		C231.076,243.091,230.181,243.986,229.076,243.986z"/>
</g>
<g>
	<path fill="#1C1C1B" d="M240.354,238.926c-0.512,0-1.023-0.195-1.414-0.586l-5.77-5.77c-0.781-0.781-0.781-2.047,0-2.828
		s2.047-0.781,2.828,0l5.77,5.77c0.781,0.781,0.781,2.047,0,2.828C241.377,238.73,240.865,238.926,240.354,238.926z"/>
</g>
<g>
	<path fill="#1C1C1B" d="M211.939,239.95c-0.512,0-1.023-0.195-1.414-0.586c-0.781-0.781-0.781-2.047,0-2.828l5.037-5.037
		c0.781-0.781,2.047-0.781,2.828,0s0.781,2.047,0,2.828l-5.037,5.037C212.963,239.755,212.451,239.95,211.939,239.95z"/>
</g>
<g>
	<path fill="#1C1C1B" d="M223.691,216.968c-6.448,0-10.95-1.01-11.357-1.104c-1.075-0.251-1.743-1.324-1.494-2.399
		s1.325-1.744,2.398-1.497c0.208,0.049,21.082,4.685,37.547-6.965c0.901-0.638,2.15-0.424,2.788,0.478s0.424,2.15-0.478,2.788
		C243.073,215.358,231.831,216.968,223.691,216.968z"/>
</g>
<g>
	<path fill="#1C1C1B" d="M224.621,234.548C224.621,234.548,224.621,234.548,224.621,234.548c-2.511,0-5.109-0.327-7.725-0.973
		c-7.146-1.762-12.153-5.402-14.88-10.821c-5.362-10.656,0.194-24.199,0.434-24.771c0.13-0.312,0.338-0.586,0.604-0.796
		c7.412-5.867,16.09-8.969,25.094-8.969c15.146,0,27.607,8.529,27.826,15.592c0.157,5.107-3.351,14.328-10.163,21.354
		C239.858,231.303,232.531,234.548,224.621,234.548z M205.961,199.992c-0.865,2.334-4.404,12.972-0.364,20.979
		c2.18,4.318,6.304,7.253,12.257,8.722c2.303,0.567,4.579,0.855,6.767,0.855c8.594,0,14.705-4.441,18.318-8.168
		c6.352-6.55,9.147-14.879,9.037-18.446c-0.124-4.01-10.272-11.715-23.828-11.715C220.225,192.219,212.564,194.904,205.961,199.992z
		"/>
</g>
<g>
	<path fill="#1C1C1B" d="M169.729,48.345c-3.937,0-6.87-0.293-7.149-0.321c-1.099-0.114-1.896-1.097-1.783-2.194
		c0.113-1.1,1.086-1.906,2.194-1.784c0.149,0.016,15.169,1.508,22.534-2.376c0.875-0.461,1.913-1.029,3.091-1.673
		c10.062-5.499,28.83-15.733,44.898-15.275c13.166,0.376,19.335,4.31,24.776,7.778c1.994,1.271,3.878,2.473,5.969,3.389
		c7.489,3.277,23.212,4.768,27.744,3.742c1.074-0.243,2.148,0.432,2.392,1.509c0.244,1.077-0.431,2.148-1.509,2.393
		c-5.238,1.187-21.823-0.301-30.23-3.979c-2.376-1.041-4.387-2.322-6.516-3.68c-5.25-3.348-10.679-6.809-22.739-7.153
		c-15.034-0.448-33.831,9.849-42.867,14.787c-1.197,0.655-2.253,1.231-3.144,1.701C182.499,47.787,175.161,48.345,169.729,48.345z"
		/>
</g>
<g>
	<path fill="#1C1C1B" d="M215.015,102.147c-0.895,0-1.709-0.604-1.938-1.51c-0.544-2.148-5.399-6.969-8.673-9.706
		c-0.848-0.708-0.961-1.97-0.253-2.816c0.71-0.849,1.971-0.96,2.817-0.253c1.482,1.238,8.931,7.627,9.985,11.794
		c0.271,1.071-0.377,2.159-1.447,2.43C215.342,102.128,215.177,102.147,215.015,102.147z"/>
</g>
<g>
	<path fill="#1C1C1B" d="M220.001,92.022c-1.042,0-1.921-0.808-1.993-1.863c-0.229-3.328-0.487-11.327,2.053-13.719
		c0.806-0.756,2.07-0.719,2.827,0.086c0.758,0.805,0.719,2.07-0.085,2.827c-0.745,0.871-1.128,5.8-0.805,10.532
		c0.075,1.102-0.757,2.056-1.858,2.132C220.093,92.021,220.047,92.022,220.001,92.022z"/>
</g>
<g>
	<path fill="#1C1C1B" d="M243.706,99.106c-1.036,0-1.915-0.818-1.996-1.868c-0.209-2.712,3.202-8.051,7.111-10.005
		c0.989-0.495,2.189-0.092,2.684,0.895c0.494,0.988,0.094,2.189-0.895,2.684c-2.829,1.414-4.869,5.219-4.91,6.164
		c0.084,1.101-0.74,2.04-1.842,2.125C243.808,99.104,243.757,99.106,243.706,99.106z"/>
</g>
<g>
	<path fill="#1C1C1B" d="M145.586,52.205h-18.232c-1.104,0-2-0.896-2-2s0.896-2,2-2h18.232c1.104,0,2,0.896,2,2
		S146.689,52.205,145.586,52.205z"/>
</g>
<g>
	<path fill="#1C1C1B" d="M152.305,57.904c-1.105,0-2-0.896-2-2V40.304c0-1.104,0.895-2,2-2c1.104,0,2,0.896,2,2v15.601
		C154.305,57.009,153.408,57.904,152.305,57.904z"/>
</g>
<g>
	<path fill="#1C1C1B" d="M277.429,125.938c-8.799,0-15.704-7.452-15.993-7.77c-0.698-0.764-0.698-1.934,0-2.697
		c0.289-0.317,7.194-7.769,15.993-7.77c8.798,0.001,15.702,7.453,15.992,7.771c0.697,0.764,0.696,1.934-0.001,2.697
		C293.131,118.486,286.227,125.938,277.429,125.938z M265.813,116.816c2.186,1.895,6.637,5.121,11.615,5.121
		c5.001,0,9.436-3.219,11.613-5.114c-2.185-1.895-6.636-5.121-11.613-5.122C272.427,111.702,267.992,114.92,265.813,116.816z"/>
</g>
<g>
	<circle fill="#1C1C1B" cx="277.428" cy="116.82" r="2.947"/>
</g>
<g>
	<path fill="#1C1C1B" d="M179.009,125.938c-8.799,0-15.704-7.452-15.993-7.77c-0.697-0.764-0.697-1.934,0-2.697
		c0.289-0.317,7.194-7.769,15.993-7.77c8.796,0.001,15.7,7.453,15.989,7.771c0.697,0.764,0.697,1.934,0,2.697
		C194.709,118.486,187.805,125.938,179.009,125.938z M167.395,116.816c2.185,1.895,6.636,5.121,11.614,5.121
		c4.999,0,9.434-3.219,11.611-5.114c-2.185-1.895-6.636-5.121-11.611-5.122C174.008,111.702,169.572,114.92,167.395,116.816z"/>
</g>
<g>
	<circle fill="#1C1C1B" cx="179.007" cy="116.82" r="2.947"/>
</g>
<g>
	<path fill="#1C1C1B" d="M315.386,46.343c-1.104,0-2-0.896-2-2V32.905c0-1.104,0.896-2,2-2s2,0.896,2,2v11.438
		C317.386,45.447,316.49,46.343,315.386,46.343z"/>
</g>
<g>
	<path fill="#1C1C1B" d="M289.959,116.367c-0.516,0-1.031-0.198-1.423-0.595c-0.776-0.785-0.769-2.052,0.018-2.828
		c2.22-2.194,5.021-5.858,6.077-8.618c0.396-1.032,1.554-1.547,2.583-1.152c1.032,0.395,1.548,1.551,1.153,2.582
		c-1.318,3.443-4.554,7.615-7.003,10.034C290.975,116.175,290.467,116.367,289.959,116.367z"/>
</g>
<g>
	<path fill="#1C1C1B" d="M167.955,115.084c-0.387,0-0.775-0.111-1.119-0.344c-3.054-2.066-6.381-6.165-8.181-9.099
		c-0.577-0.941-0.282-2.173,0.659-2.751c0.942-0.577,2.174-0.282,2.751,0.66c1.632,2.66,4.564,6.221,7.013,7.877
		c0.914,0.619,1.154,1.862,0.535,2.777C169.227,114.776,168.596,115.084,167.955,115.084z"/>
</g>
<g>
	<path fill="#1C1C1B" d="M279.202,111.642c-0.171,0-0.345-0.022-0.518-0.069c-1.067-0.285-1.701-1.382-1.415-2.448
		c0.515-1.926,0.896-4.978,0.588-6.843c-0.18-1.09,0.558-2.119,1.647-2.299c1.094-0.186,2.119,0.558,2.3,1.647
		c0.422,2.558-0.052,6.214-0.672,8.527C280.894,111.052,280.086,111.642,279.202,111.642z"/>
</g>
<g>
	<path fill="#1C1C1B" d="M174.887,110.84c-0.984,0-1.842-0.726-1.979-1.728c-0.353-2.571,0.22-6.213,0.902-8.508
		c0.314-1.059,1.429-1.662,2.487-1.348s1.662,1.428,1.347,2.487c-0.567,1.908-1.03,4.948-0.773,6.823
		c0.15,1.095-0.615,2.104-1.71,2.254C175.068,110.834,174.977,110.84,174.887,110.84z"/>
</g>
<g>
	<path fill="#1C1C1B" d="M180.978,110.909c-0.037,0-0.072-0.001-0.109-0.003c-1.102-0.059-1.948-1-1.89-2.104
		c0.068-1.29,0.652-2.933,1.201-3.988c0.507-0.979,1.714-1.362,2.696-0.853c0.979,0.509,1.361,1.716,0.853,2.696
		c-0.388,0.746-0.727,1.804-0.757,2.357C182.914,110.082,182.032,110.909,180.978,110.909z"/>
</g>
<g>
	<path fill="#1C1C1B" d="M272.935,110.951c-0.988,0-1.848-0.732-1.979-1.738c-0.132-0.997-0.529-2.275-0.887-2.852
		c-0.583-0.938-0.294-2.171,0.645-2.754c0.937-0.582,2.171-0.295,2.754,0.645c0.762,1.227,1.279,3.112,1.453,4.438
		c0.145,1.096-0.626,2.101-1.721,2.244C273.11,110.945,273.022,110.951,272.935,110.951z"/>
</g>
<g>
	<path fill="#1C1C1B" d="M280.226,123.651c-3.49,13.748-22.817,71.196-24.554,74.056c-6.746,10.959-18.034,23.974-27.646,24.584
		c-4.011,0.256-7.527-1.571-10.761-5.581c-12.034-14.922-31.767-65.477-40.785-93.016c-1.692-0.304-3.28-0.874-4.716-1.57
		c8.745,27.633,29.615,81.259,42.388,97.098c3.798,4.71,8.214,7.093,13.139,7.093c0.327,0,0.657-0.011,0.989-0.031
		c14-0.89,27.112-20.492,30.798-26.479c2.618-4.252,24.239-69.972,25.573-77.671C283.297,122.79,281.81,123.339,280.226,123.651z"/>
	<path fill="#1C1C1B" d="M297.255,67.475c-1.098-0.047-2.038,0.804-2.089,1.907c-0.222,4.876-1.202,10.295-3.086,17.056
		c-1.285,4.615-3.084,9.159-4.823,13.554c-1.403,3.547-2.825,7.159-4.022,10.889c1.318,0.521,2.532,1.163,3.611,1.836
		c1.175-3.754,2.624-7.445,4.131-11.253c1.777-4.491,3.614-9.134,4.957-13.952c1.967-7.059,2.992-12.762,3.229-17.947
		C299.212,68.46,298.358,67.524,297.255,67.475z"/>
</g>
<path fill="#1C1C1B" d="M169.078,113.045c1.063-0.697,2.274-1.375,3.601-1.942c-0.594-2.289-0.936-3.97-0.969-4.877
	c-0.333-9.011-4.511-36.415-4.688-37.577c-0.167-1.092-1.188-1.839-2.279-1.675c-1.092,0.167-1.842,1.188-1.675,2.279
	c0.043,0.282,4.32,28.337,4.646,37.121C167.759,107.604,168.241,109.914,169.078,113.045z"/>
</svg>
